<mxfile host="app.diagrams.net" modified="2023-03-11T11:41:35.141Z" agent="5.0 (Windows NT 10.0; Win64; x64) AppleWebKit/537.36 (KHTML, like Gecko) Chrome/110.0.0.0 Safari/537.36" etag="2Vr7Z4k6JAw81MsMRXhq" version="21.0.6" type="github">
  <diagram name="Page-1" id="fAvVTZt7Z1IpUONvtxOa">
    <mxGraphModel dx="1434" dy="756" grid="1" gridSize="10" guides="1" tooltips="1" connect="1" arrows="1" fold="1" page="1" pageScale="1" pageWidth="827" pageHeight="1169" math="0" shadow="0">
      <root>
        <mxCell id="0" />
        <mxCell id="1" parent="0" />
        <mxCell id="8NAdFE-vKVp-PAQQLgbD-1" value="External Systems" style="swimlane;horizontal=0;whiteSpace=wrap;html=1;fillColor=#0050ef;fontColor=#ffffff;strokeColor=#001DBC;" vertex="1" parent="1">
          <mxGeometry x="80" y="90" width="150" height="390" as="geometry" />
        </mxCell>
        <mxCell id="8NAdFE-vKVp-PAQQLgbD-2" value="ZRA" style="rounded=1;whiteSpace=wrap;html=1;fillColor=#dae8fc;strokeColor=#6c8ebf;" vertex="1" parent="8NAdFE-vKVp-PAQQLgbD-1">
          <mxGeometry x="40" y="10" width="90" height="60" as="geometry" />
        </mxCell>
        <mxCell id="8NAdFE-vKVp-PAQQLgbD-3" value="PACRA" style="rounded=1;whiteSpace=wrap;html=1;fillColor=#dae8fc;strokeColor=#6c8ebf;" vertex="1" parent="8NAdFE-vKVp-PAQQLgbD-1">
          <mxGeometry x="40" y="260" width="90" height="60" as="geometry" />
        </mxCell>
        <mxCell id="8NAdFE-vKVp-PAQQLgbD-5" value="GRZ SERVICE BUS" style="rounded=1;whiteSpace=wrap;html=1;fillColor=#dae8fc;strokeColor=#6c8ebf;" vertex="1" parent="8NAdFE-vKVp-PAQQLgbD-1">
          <mxGeometry x="40" y="90" width="90" height="60" as="geometry" />
        </mxCell>
        <mxCell id="8NAdFE-vKVp-PAQQLgbD-6" value="ROS" style="rounded=1;whiteSpace=wrap;html=1;fillColor=#dae8fc;strokeColor=#6c8ebf;" vertex="1" parent="8NAdFE-vKVp-PAQQLgbD-1">
          <mxGeometry x="40" y="175" width="90" height="60" as="geometry" />
        </mxCell>
        <mxCell id="8NAdFE-vKVp-PAQQLgbD-8" value="DRNGO RIMS" style="swimlane;whiteSpace=wrap;html=1;fillColor=#008a00;fontColor=#ffffff;strokeColor=#005700;" vertex="1" parent="1">
          <mxGeometry x="270" y="90" width="830" height="390" as="geometry" />
        </mxCell>
        <mxCell id="8NAdFE-vKVp-PAQQLgbD-15" value="" style="edgeStyle=orthogonalEdgeStyle;rounded=0;orthogonalLoop=1;jettySize=auto;html=1;startArrow=none;exitX=0.5;exitY=0;exitDx=0;exitDy=0;exitPerimeter=0;" edge="1" parent="8NAdFE-vKVp-PAQQLgbD-8" source="8NAdFE-vKVp-PAQQLgbD-11" target="8NAdFE-vKVp-PAQQLgbD-14">
          <mxGeometry relative="1" as="geometry">
            <mxPoint x="200" y="160" as="sourcePoint" />
          </mxGeometry>
        </mxCell>
        <mxCell id="8NAdFE-vKVp-PAQQLgbD-14" value="3RD PARTY INTEGRATIONS API" style="rounded=1;whiteSpace=wrap;html=1;verticalAlign=top;fillColor=#d5e8d4;strokeColor=#82b366;sketch=0;gradientDirection=north;dashed=0;fontStyle=0;fontSize=8;" vertex="1" parent="8NAdFE-vKVp-PAQQLgbD-8">
          <mxGeometry x="10" y="50" width="87" height="30" as="geometry" />
        </mxCell>
        <mxCell id="8NAdFE-vKVp-PAQQLgbD-22" value="NAME RESERVATION API" style="rounded=1;whiteSpace=wrap;html=1;verticalAlign=top;fillColor=#d5e8d4;strokeColor=#82b366;sketch=0;gradientDirection=north;dashed=0;fontStyle=0;fontSize=8;" vertex="1" parent="8NAdFE-vKVp-PAQQLgbD-8">
          <mxGeometry x="110" y="50" width="90" height="30" as="geometry" />
        </mxCell>
        <mxCell id="8NAdFE-vKVp-PAQQLgbD-23" value="" style="edgeStyle=orthogonalEdgeStyle;rounded=0;orthogonalLoop=1;jettySize=auto;html=1;exitX=0.5;exitY=0;exitDx=0;exitDy=0;exitPerimeter=0;" edge="1" target="8NAdFE-vKVp-PAQQLgbD-22" parent="8NAdFE-vKVp-PAQQLgbD-8" source="8NAdFE-vKVp-PAQQLgbD-11">
          <mxGeometry relative="1" as="geometry">
            <mxPoint x="256" y="205" as="sourcePoint" />
          </mxGeometry>
        </mxCell>
        <mxCell id="8NAdFE-vKVp-PAQQLgbD-26" value="NGO REGISTRAION API" style="rounded=1;whiteSpace=wrap;html=1;verticalAlign=top;fillColor=#d5e8d4;strokeColor=#82b366;sketch=0;gradientDirection=north;dashed=0;fontStyle=0;fontSize=8;" vertex="1" parent="8NAdFE-vKVp-PAQQLgbD-8">
          <mxGeometry x="210" y="50" width="89" height="30" as="geometry" />
        </mxCell>
        <mxCell id="8NAdFE-vKVp-PAQQLgbD-27" value="LICENSING API" style="rounded=1;whiteSpace=wrap;html=1;verticalAlign=top;fillColor=#d5e8d4;strokeColor=#82b366;sketch=0;gradientDirection=north;dashed=0;fontStyle=0;fontSize=8;" vertex="1" parent="8NAdFE-vKVp-PAQQLgbD-8">
          <mxGeometry x="310" y="50" width="80" height="30" as="geometry" />
        </mxCell>
        <mxCell id="8NAdFE-vKVp-PAQQLgbD-34" value="M&amp;amp;E API" style="rounded=1;whiteSpace=wrap;html=1;verticalAlign=top;fillColor=#d5e8d4;strokeColor=#82b366;sketch=0;gradientDirection=north;dashed=0;fontStyle=0;fontSize=8;" vertex="1" parent="8NAdFE-vKVp-PAQQLgbD-8">
          <mxGeometry x="490" y="50" width="60" height="30" as="geometry" />
        </mxCell>
        <mxCell id="8NAdFE-vKVp-PAQQLgbD-35" value="INFO SHARING API" style="rounded=1;whiteSpace=wrap;html=1;verticalAlign=top;fillColor=#d5e8d4;strokeColor=#82b366;sketch=0;gradientDirection=north;dashed=0;fontStyle=0;fontSize=8;" vertex="1" parent="8NAdFE-vKVp-PAQQLgbD-8">
          <mxGeometry x="660" y="50" width="70" height="30" as="geometry" />
        </mxCell>
        <mxCell id="8NAdFE-vKVp-PAQQLgbD-37" value="REPORTING API" style="rounded=1;whiteSpace=wrap;html=1;verticalAlign=top;fillColor=#d5e8d4;strokeColor=#82b366;sketch=0;gradientDirection=north;dashed=0;fontStyle=0;fontSize=8;" vertex="1" parent="8NAdFE-vKVp-PAQQLgbD-8">
          <mxGeometry x="560" y="50" width="86" height="30" as="geometry" />
        </mxCell>
        <mxCell id="8NAdFE-vKVp-PAQQLgbD-38" value="PAYMENTS API" style="rounded=1;whiteSpace=wrap;html=1;verticalAlign=top;fillColor=#d5e8d4;strokeColor=#82b366;sketch=0;gradientDirection=north;dashed=0;fontStyle=0;fontSize=8;" vertex="1" parent="8NAdFE-vKVp-PAQQLgbD-8">
          <mxGeometry x="400" y="50" width="80" height="30" as="geometry" />
        </mxCell>
        <mxCell id="8NAdFE-vKVp-PAQQLgbD-36" value="NOTIFICATIONS API" style="rounded=1;whiteSpace=wrap;html=1;verticalAlign=top;fillColor=#d5e8d4;strokeColor=#82b366;sketch=0;gradientDirection=north;dashed=0;fontStyle=0;fontSize=8;" vertex="1" parent="8NAdFE-vKVp-PAQQLgbD-8">
          <mxGeometry x="740" y="50" width="75" height="30" as="geometry" />
        </mxCell>
        <mxCell id="8NAdFE-vKVp-PAQQLgbD-40" value="" style="edgeStyle=orthogonalEdgeStyle;rounded=0;orthogonalLoop=1;jettySize=auto;html=1;entryX=0.5;entryY=1;entryDx=0;entryDy=0;exitX=0.5;exitY=0;exitDx=0;exitDy=0;exitPerimeter=0;" edge="1" parent="8NAdFE-vKVp-PAQQLgbD-8" source="8NAdFE-vKVp-PAQQLgbD-11" target="8NAdFE-vKVp-PAQQLgbD-26">
          <mxGeometry relative="1" as="geometry">
            <mxPoint x="134" y="170" as="sourcePoint" />
            <mxPoint x="165" y="90" as="targetPoint" />
          </mxGeometry>
        </mxCell>
        <mxCell id="8NAdFE-vKVp-PAQQLgbD-55" style="edgeStyle=orthogonalEdgeStyle;rounded=0;orthogonalLoop=1;jettySize=auto;html=1;" edge="1" parent="8NAdFE-vKVp-PAQQLgbD-8" source="8NAdFE-vKVp-PAQQLgbD-41" target="8NAdFE-vKVp-PAQQLgbD-11">
          <mxGeometry relative="1" as="geometry" />
        </mxCell>
        <mxCell id="8NAdFE-vKVp-PAQQLgbD-41" value="WEB CMS" style="sketch=0;aspect=fixed;pointerEvents=1;shadow=0;dashed=0;html=1;strokeColor=none;labelPosition=center;verticalLabelPosition=bottom;verticalAlign=top;align=center;fillColor=#00188D;shape=mxgraph.azure.laptop" vertex="1" parent="8NAdFE-vKVp-PAQQLgbD-8">
          <mxGeometry x="360" y="324" width="50" height="30" as="geometry" />
        </mxCell>
        <mxCell id="8NAdFE-vKVp-PAQQLgbD-57" style="edgeStyle=orthogonalEdgeStyle;rounded=0;orthogonalLoop=1;jettySize=auto;html=1;" edge="1" parent="8NAdFE-vKVp-PAQQLgbD-8" source="8NAdFE-vKVp-PAQQLgbD-43">
          <mxGeometry relative="1" as="geometry">
            <mxPoint x="380" y="250" as="targetPoint" />
          </mxGeometry>
        </mxCell>
        <mxCell id="8NAdFE-vKVp-PAQQLgbD-43" value="MOBILE M&amp;amp;E" style="html=1;verticalLabelPosition=bottom;align=center;labelBackgroundColor=#ffffff;verticalAlign=top;strokeWidth=2;strokeColor=#0080F0;shadow=0;dashed=0;shape=mxgraph.ios7.icons.smartphone;" vertex="1" parent="8NAdFE-vKVp-PAQQLgbD-8">
          <mxGeometry x="570" y="290" width="18" height="30" as="geometry" />
        </mxCell>
        <mxCell id="8NAdFE-vKVp-PAQQLgbD-56" style="edgeStyle=orthogonalEdgeStyle;rounded=0;orthogonalLoop=1;jettySize=auto;html=1;" edge="1" parent="8NAdFE-vKVp-PAQQLgbD-8" source="8NAdFE-vKVp-PAQQLgbD-44" target="8NAdFE-vKVp-PAQQLgbD-11">
          <mxGeometry relative="1" as="geometry" />
        </mxCell>
        <mxCell id="8NAdFE-vKVp-PAQQLgbD-44" value="WEB PORTAL" style="sketch=0;aspect=fixed;pointerEvents=1;shadow=0;dashed=0;html=1;strokeColor=none;labelPosition=center;verticalLabelPosition=bottom;verticalAlign=top;align=center;fillColor=#00188D;shape=mxgraph.azure.laptop" vertex="1" parent="8NAdFE-vKVp-PAQQLgbD-8">
          <mxGeometry x="200" y="290" width="50" height="30" as="geometry" />
        </mxCell>
        <mxCell id="8NAdFE-vKVp-PAQQLgbD-46" value="" style="edgeStyle=orthogonalEdgeStyle;rounded=0;orthogonalLoop=1;jettySize=auto;html=1;entryX=0.5;entryY=1;entryDx=0;entryDy=0;exitX=0.5;exitY=0;exitDx=0;exitDy=0;exitPerimeter=0;" edge="1" parent="8NAdFE-vKVp-PAQQLgbD-8" source="8NAdFE-vKVp-PAQQLgbD-11" target="8NAdFE-vKVp-PAQQLgbD-27">
          <mxGeometry relative="1" as="geometry">
            <mxPoint x="380" y="130" as="sourcePoint" />
            <mxPoint x="265" y="90" as="targetPoint" />
          </mxGeometry>
        </mxCell>
        <mxCell id="8NAdFE-vKVp-PAQQLgbD-47" value="" style="edgeStyle=orthogonalEdgeStyle;rounded=0;orthogonalLoop=1;jettySize=auto;html=1;entryX=0.5;entryY=1;entryDx=0;entryDy=0;exitX=0.5;exitY=0;exitDx=0;exitDy=0;exitPerimeter=0;" edge="1" parent="8NAdFE-vKVp-PAQQLgbD-8" source="8NAdFE-vKVp-PAQQLgbD-11" target="8NAdFE-vKVp-PAQQLgbD-37">
          <mxGeometry relative="1" as="geometry">
            <mxPoint x="395" y="140" as="sourcePoint" />
            <mxPoint x="360" y="90" as="targetPoint" />
          </mxGeometry>
        </mxCell>
        <mxCell id="8NAdFE-vKVp-PAQQLgbD-48" value="" style="edgeStyle=orthogonalEdgeStyle;rounded=0;orthogonalLoop=1;jettySize=auto;html=1;entryX=0.5;entryY=1;entryDx=0;entryDy=0;" edge="1" parent="8NAdFE-vKVp-PAQQLgbD-8" source="8NAdFE-vKVp-PAQQLgbD-11" target="8NAdFE-vKVp-PAQQLgbD-38">
          <mxGeometry relative="1" as="geometry">
            <mxPoint x="405" y="150" as="sourcePoint" />
            <mxPoint x="370" y="100" as="targetPoint" />
          </mxGeometry>
        </mxCell>
        <mxCell id="8NAdFE-vKVp-PAQQLgbD-49" value="" style="edgeStyle=orthogonalEdgeStyle;rounded=0;orthogonalLoop=1;jettySize=auto;html=1;entryX=0.5;entryY=1;entryDx=0;entryDy=0;exitX=0.5;exitY=0;exitDx=0;exitDy=0;exitPerimeter=0;" edge="1" parent="8NAdFE-vKVp-PAQQLgbD-8" source="8NAdFE-vKVp-PAQQLgbD-11" target="8NAdFE-vKVp-PAQQLgbD-34">
          <mxGeometry relative="1" as="geometry">
            <mxPoint x="415" y="160" as="sourcePoint" />
            <mxPoint x="380" y="110" as="targetPoint" />
          </mxGeometry>
        </mxCell>
        <mxCell id="8NAdFE-vKVp-PAQQLgbD-59" style="edgeStyle=orthogonalEdgeStyle;rounded=0;orthogonalLoop=1;jettySize=auto;html=1;shape=flexArrow;" edge="1" parent="8NAdFE-vKVp-PAQQLgbD-8" source="8NAdFE-vKVp-PAQQLgbD-11">
          <mxGeometry relative="1" as="geometry">
            <mxPoint x="-40" y="205" as="targetPoint" />
          </mxGeometry>
        </mxCell>
        <mxCell id="8NAdFE-vKVp-PAQQLgbD-11" value="API GATEWAY" style="sketch=0;points=[[0,0,0],[0.25,0,0],[0.5,0,0],[0.75,0,0],[1,0,0],[0,1,0],[0.25,1,0],[0.5,1,0],[0.75,1,0],[1,1,0],[0,0.25,0],[0,0.5,0],[0,0.75,0],[1,0.25,0],[1,0.5,0],[1,0.75,0]];outlineConnect=0;gradientDirection=north;fillColor=#d5e8d4;strokeColor=#82b366;dashed=0;verticalLabelPosition=bottom;verticalAlign=top;align=center;html=1;fontSize=12;fontStyle=0;aspect=fixed;shape=mxgraph.aws4.resourceIcon;resIcon=mxgraph.aws4.api_gateway;" vertex="1" parent="8NAdFE-vKVp-PAQQLgbD-8">
          <mxGeometry x="340" y="160" width="90" height="90" as="geometry" />
        </mxCell>
        <mxCell id="8NAdFE-vKVp-PAQQLgbD-53" value="" style="edgeStyle=orthogonalEdgeStyle;rounded=0;orthogonalLoop=1;jettySize=auto;html=1;entryX=0.5;entryY=1;entryDx=0;entryDy=0;exitX=0.5;exitY=0;exitDx=0;exitDy=0;exitPerimeter=0;" edge="1" parent="8NAdFE-vKVp-PAQQLgbD-8" source="8NAdFE-vKVp-PAQQLgbD-11" target="8NAdFE-vKVp-PAQQLgbD-35">
          <mxGeometry relative="1" as="geometry">
            <mxPoint x="395" y="170" as="sourcePoint" />
            <mxPoint x="613" y="90" as="targetPoint" />
          </mxGeometry>
        </mxCell>
        <mxCell id="8NAdFE-vKVp-PAQQLgbD-54" value="" style="edgeStyle=orthogonalEdgeStyle;rounded=0;orthogonalLoop=1;jettySize=auto;html=1;entryX=0.5;entryY=1;entryDx=0;entryDy=0;exitX=0.5;exitY=0;exitDx=0;exitDy=0;exitPerimeter=0;" edge="1" parent="8NAdFE-vKVp-PAQQLgbD-8" source="8NAdFE-vKVp-PAQQLgbD-11" target="8NAdFE-vKVp-PAQQLgbD-36">
          <mxGeometry relative="1" as="geometry">
            <mxPoint x="395" y="170" as="sourcePoint" />
            <mxPoint x="705" y="90" as="targetPoint" />
          </mxGeometry>
        </mxCell>
        <mxCell id="8NAdFE-vKVp-PAQQLgbD-58" style="edgeStyle=orthogonalEdgeStyle;rounded=0;orthogonalLoop=1;jettySize=auto;html=1;exitX=0.5;exitY=1;exitDx=0;exitDy=0;exitPerimeter=0;" edge="1" parent="8NAdFE-vKVp-PAQQLgbD-8" source="8NAdFE-vKVp-PAQQLgbD-41" target="8NAdFE-vKVp-PAQQLgbD-41">
          <mxGeometry relative="1" as="geometry" />
        </mxCell>
      </root>
    </mxGraphModel>
  </diagram>
</mxfile>
